<?xml version="1.0" standalone="no"?>
<!DOCTYPE svg PUBLIC "-//W3C//DTD SVG 20010904//EN"
 "http://www.w3.org/TR/2001/REC-SVG-20010904/DTD/svg10.dtd">
<svg version="1.0" xmlns="http://www.w3.org/2000/svg"
 width="256.000000pt" height="256.000000pt" viewBox="0 0 256.000000 256.000000"
 preserveAspectRatio="xMidYMid meet">

<g transform="translate(0.000000,256.000000) scale(0.100000,-0.100000)"
fill="#0B3392" stroke="none">
<path d="M1100 2529 c-418 -49 -780 -322 -951 -719 -77 -178 -109 -342 -109
-556 0 -635 368 -1091 976 -1210 118 -23 348 -23 459 0 262 56 493 179 679
363 173 171 273 343 333 572 31 117 43 356 24 479 -89 569 -557 1008 -1143
1072 -110 11 -160 11 -268 -1z m389 -63 c487 -107 864 -479 967 -956 22 -102
25 -352 5 -445 -61 -294 -214 -539 -445 -719 -253 -197 -528 -287 -831 -273
-316 14 -580 131 -787 345 -417 433 -422 1212 -11 1687 162 188 409 326 663
371 97 17 339 12 439 -10z"/>
<path d="M993 2345 c-379 -69 -675 -341 -773 -710 -23 -91 -39 -265 -23 -265
6 0 13 39 16 88 17 230 135 477 300 628 155 142 369 234 584 251 46 3 83 10
83 14 0 13 -103 9 -187 -6z"/>
<path d="M1081 2185 c-181 -40 -312 -108 -440 -229 -159 -152 -247 -342 -272
-587 -32 -323 87 -634 313 -819 74 -60 236 -142 328 -165 85 -22 224 -32 328
-23 401 34 754 342 839 732 25 112 20 289 -10 407 -92 353 -385 625 -741 688
-82 15 -268 12 -345 -4z m394 -55 c233 -63 443 -220 559 -421 37 -65 35 -68
-31 -53 -141 32 -296 46 -586 51 -410 8 -682 -18 -872 -82 -38 -13 -71 -22
-73 -20 -6 5 46 114 80 166 128 199 322 331 549 374 100 20 270 13 374 -15z
m-305 -468 c0 -14 -704 -437 -733 -440 -27 -3 -28 -2 -25 35 l3 38 298 182
c256 156 304 182 345 186 92 7 112 7 112 -1z m200 -5 c-8 -8 -175 -111 -371
-231 l-356 -216 -69 7 -69 8 195 120 c107 65 269 165 360 221 l165 102 80 1
c67 1 77 -1 65 -12z m198 -2 c2 -1 -54 -38 -124 -80 -96 -59 -142 -81 -190
-91 -78 -17 -106 -34 -144 -89 -22 -31 -65 -64 -181 -134 l-152 -94 -44 14
c-25 8 -46 18 -46 23 -1 5 166 111 372 237 l374 228 66 -6 c36 -3 67 -7 69 -8z
m-613 -4 c-21 -20 -538 -332 -542 -327 -3 3 -1 27 3 53 l9 48 176 107 c162 99
181 108 245 117 98 12 120 13 109 2z m768 3 l38 -7 -33 -22 c-18 -12 -95 -59
-171 -105 l-137 -83 -46 22 -45 23 143 88 c149 92 166 98 251 84z m185 -23 c7
-1 11 -5 8 -10 -7 -11 -437 -274 -440 -269 -1 2 -13 18 -25 35 l-22 33 33 20
c18 10 102 61 186 113 152 93 154 93 200 86 26 -4 53 -8 60 -8z m-1209 -15
c-2 -2 -64 -40 -138 -85 l-133 -82 6 38 c4 21 13 44 20 51 15 16 201 82 230
82 11 0 17 -2 15 -4z m1320 -8 c28 -6 51 -14 51 -17 0 -5 -537 -335 -582 -358
-5 -2 -8 18 -8 45 l0 49 238 146 c130 80 240 146 244 146 3 1 29 -4 57 -11z
m91 -74 c7 -20 8 -39 4 -44 -16 -14 -1014 -620 -1022 -620 -4 0 -15 14 -25 32
-22 38 -25 35 100 111 50 31 109 59 130 63 58 10 107 39 144 84 24 28 123 95
334 224 165 102 305 185 312 185 6 1 17 -15 23 -35z m24 -86 c16 -63 34 -49
-495 -372 -275 -168 -504 -306 -509 -306 -7 0 -24 49 -25 73 0 7 1002 625
1016 626 4 1 9 -9 13 -21z m-761 -41 c94 -72 80 -215 -27 -266 -84 -41 -168
-15 -206 64 -39 80 -16 161 61 213 46 32 122 27 172 -11z m777 -96 c0 -45 -3
-51 -33 -68 -20 -12 -62 -22 -107 -26 -41 -4 -86 -10 -100 -13 -14 -4 -22 -4
-19 0 10 10 243 154 252 155 4 1 7 -21 7 -48z m-1072 -38 l-3 -47 -97 -60 -98
-59 -36 19 c-20 10 -38 22 -40 26 -4 7 253 168 269 168 4 0 7 -21 5 -47z
m1072 -43 c0 -5 -8 -10 -17 -10 -15 0 -16 2 -3 10 19 12 20 12 20 0z m-1034
-99 c-7 -11 -142 -91 -153 -91 -5 0 -22 13 -37 28 l-27 29 93 56 93 55 18 -34
c10 -19 15 -38 13 -43z m-491 34 c90 -19 215 -81 282 -140 66 -58 144 -174
172 -256 25 -73 37 -190 27 -270 -10 -83 -12 -85 -91 -65 -196 49 -380 187
-483 361 -47 79 -96 220 -110 312 -8 58 -7 62 12 66 46 9 125 6 191 -8z m1499
5 c16 0 17 -5 12 -45 -9 -56 -46 -165 -76 -225 -93 -184 -267 -344 -458 -425
-118 -49 -130 -51 -139 -18 -5 16 -8 73 -8 128 1 158 56 289 171 406 117 118
311 199 444 183 19 -2 43 -4 54 -4z m-939 -73 l46 -24 -94 -56 c-51 -32 -98
-57 -103 -56 -5 0 -19 13 -32 29 l-23 29 58 36 c32 21 67 43 78 50 11 8 21 14
22 14 1 1 22 -10 48 -22z m378 -99 c-99 -154 -93 -149 -253 -247 -83 -51 -154
-90 -157 -88 -2 3 -7 23 -10 45 l-5 39 213 131 c118 72 215 131 217 132 2 0
-1 -6 -5 -12z m-131 -250 l-17 -56 -124 -76 c-68 -42 -125 -75 -127 -74 -1 2
-4 23 -5 47 l-4 45 145 88 c79 48 145 87 146 85 2 -1 -5 -28 -14 -59z m-22
-136 l0 -48 -130 -79 c-72 -43 -133 -76 -136 -73 -2 3 -1 26 3 52 8 46 8 46
128 120 66 41 123 75 128 75 4 1 7 -21 7 -47z m0 -96 c0 -7 3 -27 6 -43 5 -26
2 -31 -39 -51 -32 -16 -62 -22 -111 -22 -36 0 -66 3 -66 8 1 9 181 120 198
121 6 1 12 -5 12 -13z"/>
<path d="M1255 1392 c-60 -10 -95 -53 -95 -118 0 -28 8 -44 35 -71 19 -19 39
-32 45 -28 6 4 -5 20 -25 39 -43 41 -46 81 -9 125 22 26 33 31 70 31 24 0 44
4 44 9 0 10 -37 18 -65 13z"/>
<path d="M2335 1094 c-24 -196 -136 -422 -284 -578 -132 -137 -266 -221 -464
-290 -10 -3 -16 -10 -12 -15 7 -12 90 16 182 61 209 103 391 284 495 493 57
114 107 281 108 358 0 49 -18 28 -25 -29z"/>
<path d="M1403 188 c-84 -13 -84 -33 -1 -24 34 4 66 10 70 12 10 7 10 24 1 23
-5 -1 -36 -6 -70 -11z"/>
</g>
</svg>
